<svg width="59" height="59" viewBox="0 0 59 59" fill="none" xmlns="http://www.w3.org/2000/svg">
<path id="Vector" fill-rule="evenodd" clip-rule="evenodd" d="M29.5134 0C13.2553 0 0 13.2365 0 29.492C0 45.7474 13.258 59 29.5134 59C45.7688 59 59 45.7474 59 29.492C59 13.2365 45.7688 0 29.5134 0ZM29.5134 5.36217C32.6834 5.35687 35.8233 5.97743 38.7529 7.18826C41.6826 8.39908 44.3444 10.1763 46.5857 12.4181C48.8269 14.6599 50.6036 17.3221 51.8138 20.252C53.024 23.1819 53.6438 26.322 53.6378 29.492C53.6442 32.6628 53.0247 35.8038 51.8148 38.7347C50.605 41.6657 48.8286 44.3291 46.5874 46.5722C44.3463 48.8154 41.6845 50.5942 38.7546 51.8066C35.8247 53.0191 32.6843 53.6414 29.5134 53.6378C26.3412 53.6417 23.1993 53.0198 20.2678 51.8078C17.3362 50.5958 14.6725 48.8175 12.4292 46.5746C10.1858 44.3318 8.40687 41.6685 7.19421 38.7372C5.98156 35.8059 5.359 32.6642 5.36217 29.492C5.36217 16.1348 16.1562 5.36217 29.5134 5.36217ZM29.4705 10.6868C29.1161 10.6903 28.766 10.764 28.4402 10.9036C28.1145 11.0433 27.8197 11.2462 27.5729 11.5005C27.3261 11.7548 27.1321 12.0555 27.0022 12.3852C26.8723 12.715 26.8091 13.0672 26.8162 13.4215V29.492C26.8177 29.8448 26.8888 30.1938 27.0255 30.5191C27.1621 30.8444 27.3616 31.1395 27.6125 31.3875L38.3369 42.1172C38.5849 42.3725 38.8813 42.5758 39.2088 42.7153C39.5363 42.8548 39.8883 42.9277 40.2442 42.9298C40.6002 42.9318 40.953 42.863 41.282 42.7272C41.6111 42.5915 41.9098 42.3916 42.1608 42.1392C42.4118 41.8868 42.61 41.5869 42.7439 41.2571C42.8777 40.9273 42.9446 40.5741 42.9405 40.2181C42.9365 39.8622 42.8616 39.5107 42.7202 39.184C42.5789 38.8573 42.3739 38.562 42.1172 38.3154L32.1838 28.382V13.4215C32.191 13.0622 32.1259 12.7051 31.9924 12.3715C31.8588 12.0379 31.6596 11.7345 31.4065 11.4794C31.1534 11.2243 30.8516 11.0226 30.519 10.8865C30.1864 10.7503 29.8298 10.6824 29.4705 10.6868Z" fill="#F2994A"/>
</svg>
