<svg width="99" height="73" viewBox="0 0 99 73" fill="none" xmlns="http://www.w3.org/2000/svg">
<g id="Group 96">
<path id="Vector" d="M49.499 4.8667C43.4029 4.8667 37.4438 6.67439 32.3751 10.0612C27.3064 13.448 23.3558 18.2617 21.023 23.8938C18.6901 29.5258 18.0797 35.7231 19.269 41.702C20.4583 47.681 23.3938 53.173 27.7044 57.4835C32.015 61.7941 37.507 64.7296 43.4859 65.9189C49.4648 67.1082 55.6621 66.4978 61.2941 64.1649C66.9262 61.8321 71.7399 57.8815 75.1267 52.8128C78.5135 47.7441 80.3212 41.785 80.3212 35.6889C80.3122 27.5171 77.062 19.6826 71.2836 13.9043C65.5053 8.12594 57.6708 4.87572 49.499 4.8667ZM49.499 63.2667C44.0446 63.2667 38.7127 61.6493 34.1776 58.619C29.6425 55.5887 26.1077 51.2817 24.0205 46.2425C21.9332 41.2033 21.387 35.6583 22.4511 30.3088C23.5152 24.9592 26.1417 20.0453 29.9986 16.1885C33.8554 12.3317 38.7693 9.70514 44.1188 8.64104C49.4684 7.57695 55.0134 8.12308 60.0526 10.2104C65.0917 12.2977 69.3988 15.8324 72.4291 20.3675C75.4594 24.9027 77.0768 30.2346 77.0768 35.6889C77.0686 43.0005 74.1605 50.0103 68.9904 55.1803C63.8204 60.3504 56.8106 63.2585 49.499 63.2667Z" fill="#F2994A"/>
<path id="Vector_2" d="M18.6775 17.8444V1.62222H15.433V16.2222H13.8108V1.62222H10.5663V16.2222H8.94412V1.62222H5.69967V16.2222H4.07745V1.62222H0.833008V25.9556C0.834235 26.9618 1.14671 27.943 1.72757 28.7646C2.30844 29.5863 3.12925 30.2081 4.07745 30.5448V68.1333C4.07745 69.424 4.59019 70.6619 5.50287 71.5746C6.41554 72.4873 7.6534 73 8.94412 73H10.5663C11.8571 73 13.0949 72.4873 14.0076 71.5746C14.9203 70.6619 15.433 69.424 15.433 68.1333V30.5448C16.3812 30.2081 17.202 29.5863 17.7829 28.7646C18.3638 27.943 18.6762 26.9618 18.6775 25.9556V17.8444ZM15.433 25.9556C15.433 26.3858 15.2621 26.7984 14.9579 27.1026C14.6536 27.4069 14.241 27.5778 13.8108 27.5778C13.3805 27.5778 12.9679 27.7487 12.6637 28.0529C12.3595 28.3571 12.1886 28.7698 12.1886 29.2V68.1333C12.1886 68.5636 12.0177 68.9762 11.7134 69.2804C11.4092 69.5846 10.9966 69.7556 10.5663 69.7556H8.94412C8.51388 69.7556 8.10126 69.5846 7.79704 69.2804C7.49281 68.9762 7.3219 68.5636 7.3219 68.1333V29.2C7.3219 28.7698 7.15098 28.3571 6.84676 28.0529C6.54253 27.7487 6.12991 27.5778 5.69967 27.5778C5.26943 27.5778 4.85682 27.4069 4.55259 27.1026C4.24836 26.7984 4.07745 26.3858 4.07745 25.9556V19.4667H15.433V25.9556ZM96.5441 0C92.6733 0.00429378 88.9622 1.54388 86.2251 4.28098C83.488 7.01808 81.9484 10.7292 81.9441 14.6V35.6889C81.9441 36.9796 82.4569 38.2175 83.3695 39.1301C84.2822 40.0428 85.5201 40.5556 86.8108 40.5556V71.3778C86.8108 71.808 86.9817 72.2206 87.2859 72.5249C87.5901 72.8291 88.0028 73 88.433 73H96.5441C96.9744 73 97.387 72.8291 97.6912 72.5249C97.9954 72.2206 98.1663 71.808 98.1663 71.3778V1.62222C98.1663 1.19198 97.9954 0.779364 97.6912 0.475138C97.387 0.170913 96.9744 0 96.5441 0ZM94.9219 69.7556H90.0552V38.9333C90.0552 38.5031 89.8843 38.0905 89.5801 37.7862C89.2759 37.482 88.8633 37.3111 88.433 37.3111H86.8108C86.3805 37.3111 85.9679 37.1402 85.6637 36.836C85.3595 36.5317 85.1886 36.1191 85.1886 35.6889V14.6C85.192 11.8702 86.1771 9.23265 87.9641 7.169C89.751 5.10535 92.2206 3.75327 94.9219 3.35962V69.7556Z" fill="#F2994A"/>
<path id="Vector_3" d="M90.055 9.73315H86.8105V34.0665H90.055V9.73315Z" fill="#F2994A"/>
<path id="Vector_4" d="M49.5006 19.4666C46.2921 19.4666 43.1557 20.418 40.488 22.2005C37.8202 23.983 35.741 26.5166 34.5132 29.4808C33.2853 32.445 32.9641 35.7068 33.59 38.8536C34.216 42.0004 35.761 44.8909 38.0297 47.1596C40.2984 49.4283 43.189 50.9734 46.3358 51.5993C49.4826 52.2252 52.7443 51.904 55.7085 50.6762C58.6728 49.4483 61.2063 47.3691 62.9888 44.7014C64.7714 42.0336 65.7228 38.8972 65.7228 35.6888C65.7181 31.3878 64.0074 27.2644 60.9662 24.2231C57.9249 21.1819 53.8015 19.4713 49.5006 19.4666ZM49.5006 48.6666C46.9338 48.6666 44.4247 47.9054 42.2905 46.4794C40.1563 45.0534 38.4929 43.0265 37.5106 40.6552C36.5284 38.2838 36.2714 35.6744 36.7721 33.1569C37.2729 30.6395 38.5089 28.3271 40.3239 26.5121C42.1389 24.6971 44.4513 23.4611 46.9687 22.9604C49.4862 22.4596 52.0956 22.7166 54.4669 23.6989C56.8383 24.6811 58.8652 26.3445 60.2912 28.4787C61.7172 30.6129 62.4783 33.122 62.4783 35.6888C62.4745 39.1295 61.1059 42.4282 58.673 44.8612C56.24 47.2942 52.9413 48.6627 49.5006 48.6666Z" fill="#F2994A"/>
</g>
</svg>
