<svg width="84" height="84" viewBox="0 0 84 84" fill="none" xmlns="http://www.w3.org/2000/svg">
<g id="Iconly/Light-Outline/Heart">
<g id="Heart">
<path id="Path" fill-rule="evenodd" clip-rule="evenodd" d="M42.8319 78.7537C42.3979 78.7537 41.9674 78.6487 41.5754 78.4352C40.4799 77.8367 14.6744 63.6127 8.38487 44.0337C8.38137 44.0337 8.38137 44.0302 8.38137 44.0302C4.43337 31.7032 8.82937 16.2122 23.0219 11.6377C29.6859 9.48167 36.9484 10.4302 42.8214 14.1367C48.5124 10.5387 56.0724 9.54467 62.6034 11.6377C76.8099 16.2192 81.2199 31.7067 77.2754 44.0302C71.1889 63.3852 45.1944 77.8227 44.0919 78.4282C43.6999 78.6452 43.2659 78.7537 42.8319 78.7537Z" fill="black"/>
<path id="Path_2" fill-rule="evenodd" clip-rule="evenodd" d="M13.383 42.4306C18.29 57.6976 37.6765 70.0421 42.8285 73.0976C47.998 70.0106 67.5245 57.5296 72.274 42.4446C75.3925 32.6936 72.498 20.3421 60.997 16.6356C55.425 14.8471 48.9255 15.9356 44.4385 19.4076C43.5005 20.1286 42.1985 20.1426 41.2535 19.4286C36.5005 15.8551 30.2915 14.8086 24.632 16.6356C13.1485 20.3386 10.2645 32.6901 13.383 42.4306Z" fill="#FFA194"/>
<path id="Fill 4" fill-rule="evenodd" clip-rule="evenodd" d="M63.5374 37.1872C62.1829 37.1872 61.0349 36.1477 60.9229 34.7757C60.6919 31.8987 58.7669 29.4697 56.0264 28.5842C54.6439 28.1362 53.8879 26.6557 54.3324 25.2802C54.7839 23.9012 56.2504 23.1522 57.6364 23.5862C62.4069 25.1297 65.7494 29.3542 66.1589 34.3487C66.2744 35.7942 65.1999 37.0612 63.7544 37.1767C63.6809 37.1837 63.6109 37.1872 63.5374 37.1872Z" fill="black"/>
</g>
</g>
</svg>
