<svg width="73" height="73" viewBox="0 0 73 73" fill="none" xmlns="http://www.w3.org/2000/svg">
<path id="Vector" d="M59.3383 69.9583C55.197 69.9583 57.8158 70.5667 57.8158 66.9167C57.8158 63.9663 53.6897 59.2213 52.8523 58.2935C52.7095 58.1367 52.5356 58.0114 52.3416 57.9257C52.1476 57.8399 51.9377 57.7956 51.7256 57.7956C51.5134 57.7956 51.3036 57.8399 51.1095 57.9257C50.9155 58.0114 50.7416 58.1367 50.5989 58.2935C49.7615 59.2213 45.6353 63.9663 45.6353 66.9167C45.6398 67.9888 45.9344 69.0398 46.488 69.9583H41.7376C42.2911 69.0398 42.5857 67.9888 42.5902 66.9167C42.5902 63.9663 38.4641 59.2213 37.6267 58.2935C37.484 58.1367 37.31 58.0114 37.116 57.9257C36.922 57.8399 36.7122 57.7956 36.5 57.7956C36.2878 57.7956 36.078 57.8399 35.884 57.9257C35.69 58.0114 35.516 58.1367 35.3733 58.2935C34.5359 59.2213 30.4098 63.9663 30.4098 66.9167C30.4143 67.9888 30.7089 69.0398 31.2624 69.9583H26.512C27.0656 69.0398 27.3602 67.9888 27.3647 66.9167C27.3647 63.9663 23.2385 59.2213 22.4011 58.2935C22.2584 58.1367 22.0845 58.0114 21.8905 57.9257C21.6964 57.8399 21.4866 57.7956 21.2744 57.7956C21.0623 57.7956 20.8524 57.8399 20.6584 57.9257C20.4644 58.0114 20.2905 58.1367 20.1478 58.2935C19.3103 59.2213 15.1842 63.9663 15.1842 66.9167C15.1842 70.5515 17.7878 69.9583 13.6617 69.9583C13.2579 69.9583 12.8706 70.1186 12.5851 70.4038C12.2995 70.689 12.1391 71.0758 12.1391 71.4792C12.1391 71.8825 12.2995 72.2693 12.5851 72.5546C12.8706 72.8398 13.2579 73 13.6617 73H59.3383C59.7421 73 60.1294 72.8398 60.415 72.5546C60.7005 72.2693 60.8609 71.8825 60.8609 71.4792C60.8609 71.0758 60.7005 70.689 60.415 70.4038C60.1294 70.1186 59.7421 69.9583 59.3383 69.9583ZM48.6804 66.9167C48.6804 65.9433 50.1117 63.6773 51.7256 61.6698C53.3395 63.6925 54.7707 65.9738 54.7707 66.9167C54.7707 67.7234 54.4499 68.497 53.8788 69.0675C53.3077 69.6379 52.5332 69.9583 51.7256 69.9583C50.9179 69.9583 50.1434 69.6379 49.5723 69.0675C49.0013 68.497 48.6804 67.7234 48.6804 66.9167ZM33.4549 66.9167C33.4549 65.9433 34.8861 63.6773 36.5 61.6698C38.1139 63.6925 39.5451 65.9738 39.5451 66.9167C39.5451 67.7234 39.2243 68.497 38.6532 69.0675C38.0821 69.6379 37.3076 69.9583 36.5 69.9583C35.6924 69.9583 34.9179 69.6379 34.3468 69.0675C33.7757 68.497 33.4549 67.7234 33.4549 66.9167ZM18.2293 66.9167C18.2293 65.9433 19.6605 63.6773 21.2744 61.6698C22.8884 63.6925 24.3196 65.9738 24.3196 66.9167C24.3196 67.7234 23.9987 68.497 23.4277 69.0675C22.8566 69.6379 22.0821 69.9583 21.2744 69.9583C20.4668 69.9583 19.6923 69.6379 19.1212 69.0675C18.5502 68.497 18.2293 67.7234 18.2293 66.9167ZM66.8141 21.2917H6.18591C4.78949 21.3043 3.43763 21.7843 2.34651 22.6549C1.25538 23.5254 0.488005 24.7363 0.167081 26.0939C-0.153844 27.4514 -0.00978123 28.8773 0.576233 30.1434C1.16225 31.4096 2.15637 32.4429 3.39964 33.0781L9.09399 35.9221V41.0625C9.09399 44.6927 10.5377 48.1741 13.1075 50.741C15.6773 53.3079 19.1627 54.75 22.797 54.75H50.203C53.8373 54.75 57.3227 53.3079 59.8925 50.741C62.4623 48.1741 63.906 44.6927 63.906 41.0625V35.9221L69.6004 33.0781C70.8436 32.4429 71.8378 31.4096 72.4238 30.1434C73.0098 28.8773 73.1538 27.4514 72.8329 26.0939C72.512 24.7363 71.7446 23.5254 70.6535 22.6549C69.5624 21.7843 68.2105 21.3043 66.8141 21.2917ZM4.76994 30.4167C4.09213 30.1176 3.54008 29.5915 3.209 28.9294C2.87793 28.2672 2.78859 27.5103 2.95639 26.7894C3.1242 26.0685 3.53864 25.4286 4.12821 24.9803C4.71778 24.5319 5.44553 24.3031 6.18591 24.3333H9.09399V32.5154L4.76994 30.4167ZM60.8609 41.0625C60.8609 43.886 59.738 46.5938 57.7393 48.5902C55.7405 50.5867 53.0297 51.7083 50.203 51.7083H22.797C19.9703 51.7083 17.2595 50.5867 15.2607 48.5902C13.262 46.5938 12.1391 43.886 12.1391 41.0625V24.3333H60.8609V41.0625ZM68.2301 30.4167L63.906 32.5154V24.3333H66.8141C67.5545 24.3031 68.2822 24.5319 68.8718 24.9803C69.4614 25.4286 69.8758 26.0685 70.0436 26.7894C70.2114 27.5103 70.1221 28.2672 69.791 28.9294C69.4599 29.5915 68.9079 30.1176 68.2301 30.4167ZM35.5256 13.0183C32.4043 15.619 33.257 18.25 34.9774 18.25C35.3813 18.25 35.7685 18.0898 36.0541 17.8046C36.3396 17.5193 36.5 17.1325 36.5 16.7292C36.5 15.33 39.5451 14.889 39.5451 11.6648C39.5451 7.60417 34.3989 7.77146 37.4744 5.21646C40.55 2.66146 39.7583 0 38.0226 0C37.6188 0 37.2315 0.16023 36.9459 0.445442C36.6604 0.730653 36.5 1.11748 36.5 1.52083C36.5 2.92 33.4549 3.36104 33.4549 6.58521C33.4549 9.80937 36.5 10.2656 36.5 11.6648C36.5 12.1667 36.2564 12.41 35.5256 13.0183ZM23.3451 13.0183C20.2239 15.619 21.0765 18.25 22.797 18.25C23.2008 18.25 23.5881 18.0898 23.8736 17.8046C24.1591 17.5193 24.3196 17.1325 24.3196 16.7292C24.3196 15.33 27.3647 14.889 27.3647 11.6648C27.3647 7.60417 22.2184 7.77146 25.294 5.21646C28.3696 2.66146 27.5778 0 25.8421 0C25.4383 0 25.051 0.16023 24.7655 0.445442C24.48 0.730653 24.3196 1.11748 24.3196 1.52083C24.3196 2.92 21.2744 3.36104 21.2744 6.58521C21.2744 9.80937 24.3196 10.2656 24.3196 11.6648C24.3196 12.1667 24.0759 12.41 23.3451 13.0183ZM47.706 13.0183C44.5848 15.619 45.4374 18.25 47.1579 18.25C47.5617 18.25 47.949 18.0898 48.2345 17.8046C48.52 17.5193 48.6804 17.1325 48.6804 16.7292C48.6804 15.33 51.7256 14.889 51.7256 11.6648C51.7256 7.60417 46.5793 7.77146 49.6549 5.21646C52.7304 2.66146 51.9387 0 50.203 0C49.7992 0 49.4119 0.16023 49.1264 0.445442C48.8409 0.730653 48.6804 1.11748 48.6804 1.52083C48.6804 2.92 45.6353 3.36104 45.6353 6.58521C45.6353 9.80937 48.6804 10.2656 48.6804 11.6648C48.6804 12.1667 48.4368 12.41 47.706 13.0183Z" fill="#F2994A"/>
</svg>
